<svg width="194" height="132" viewBox="0 0 194 132" fill="none" xmlns="http://www.w3.org/2000/svg">
<path d="M4.73419 32.9922H0V37.706H4.73419V32.9922Z" fill="#231F20"/>
<path d="M9.45132 37.7056H4.73438V42.4225H9.45132V37.7056Z" fill="#231F20"/>
<path d="M9.45132 32.9922H4.73438V37.706H9.45132V32.9922Z" fill="#BE1E2D"/>
<path d="M9.45132 28.2759H4.73438V32.9928H9.45132V28.2759Z" fill="#231F20"/>
<path d="M14.1844 51.8555H9.4502V56.5693H14.1844V51.8555Z" fill="#231F20"/>
<path d="M14.1844 37.7056H9.4502V42.4225H14.1844V37.7056Z" fill="#231F20"/>
<path d="M14.1844 32.9922H9.4502V37.706H14.1844V32.9922Z" fill="#BE1E2D"/>
<path d="M14.1844 28.2759H9.4502V32.9928H14.1844V28.2759Z" fill="#231F20"/>
<path d="M14.1844 14.147H9.4502V18.8631H14.1844V14.147Z" fill="#231F20"/>
<path d="M18.9015 56.5688H14.1846V61.2858H18.9015V56.5688Z" fill="#231F20"/>
<path d="M18.9015 51.8555H14.1846V56.5693H18.9015V51.8555Z" fill="#BE1E2D"/>
<path d="M18.9015 47.1377H14.1846V51.8546H18.9015V47.1377Z" fill="#231F20"/>
<path d="M18.9015 42.4229H14.1846V47.139H18.9015V42.4229Z" fill="#231F20"/>
<path d="M18.9015 37.7056H14.1846V42.4225H18.9015V37.7056Z" fill="#BE1E2D"/>
<path d="M18.9015 32.9922H14.1846V37.706H18.9015V32.9922Z" fill="#F15A29"/>
<path d="M18.9015 28.2759H14.1846V32.9928H18.9015V28.2759Z" fill="#BE1E2D"/>
<path d="M18.9015 23.5615H14.1846V28.2753H18.9015V23.5615Z" fill="#231F20"/>
<path d="M18.9015 18.8633H14.1846V23.5622H18.9015V18.8633Z" fill="#231F20"/>
<path d="M18.9015 14.147H14.1846V18.8631H18.9015V14.147Z" fill="#BE1E2D"/>
<path d="M18.9015 9.43262H14.1846V14.1464H18.9015V9.43262Z" fill="#231F20"/>
<path d="M23.6175 56.5688H18.9014V61.2858H23.6175V56.5688Z" fill="#231F20"/>
<path d="M23.6175 51.8555H18.9014V56.5693H23.6175V51.8555Z" fill="#BE1E2D"/>
<path d="M23.6175 47.1377H18.9014V51.8546H23.6175V47.1377Z" fill="#231F20"/>
<path d="M23.6175 42.4229H18.9014V47.139H23.6175V42.4229Z" fill="#BE1E2D"/>
<path d="M23.6175 37.7056H18.9014V42.4225H23.6175V37.7056Z" fill="#F15A29"/>
<path d="M23.6175 32.9922H18.9014V37.706H23.6175V32.9922Z" fill="#F9ED32"/>
<path d="M23.6175 28.2759H18.9014V32.9928H23.6175V28.2759Z" fill="#F15A29"/>
<path d="M23.6175 23.5615H18.9014V28.2753H23.6175V23.5615Z" fill="#BE1E2D"/>
<path d="M23.6175 18.8633H18.9014V23.5622H23.6175V18.8633Z" fill="#231F20"/>
<path d="M23.6175 14.147H18.9014V18.8631H23.6175V14.147Z" fill="#BE1E2D"/>
<path d="M23.6175 9.43262H18.9014V14.1464H23.6175V9.43262Z" fill="#231F20"/>
<path d="M28.3524 56.5688H23.6182V61.2858H28.3524V56.5688Z" fill="#231F20"/>
<path d="M28.3524 51.8555H23.6182V56.5693H28.3524V51.8555Z" fill="#BE1E2D"/>
<path d="M28.3524 47.1377H23.6182V51.8546H28.3524V47.1377Z" fill="#BE1E2D"/>
<path d="M28.3524 42.4229H23.6182V47.139H28.3524V42.4229Z" fill="#F15A29"/>
<path d="M28.3524 37.7056H23.6182V42.4225H28.3524V37.7056Z" fill="#F9ED32"/>
<path d="M28.3524 32.9922H23.6182V37.706H28.3524V32.9922Z" fill="#F9ED32"/>
<path d="M28.3524 28.2759H23.6182V32.9928H28.3524V28.2759Z" fill="#F9ED32"/>
<path d="M28.3524 23.5615H23.6182V28.2753H28.3524V23.5615Z" fill="#F15A29"/>
<path d="M28.3524 18.8633H23.6182V23.5622H28.3524V18.8633Z" fill="#BE1E2D"/>
<path d="M28.3524 14.147H23.6182V18.8631H28.3524V14.147Z" fill="#BE1E2D"/>
<path d="M28.3524 9.43262H23.6182V14.1464H28.3524V9.43262Z" fill="#231F20"/>
<path d="M33.0644 56.5688H28.3506V61.2858H33.0644V56.5688Z" fill="#231F20"/>
<path d="M33.0644 51.8555H28.3506V56.5693H33.0644V51.8555Z" fill="#BE1E2D"/>
<path d="M33.0644 47.1377H28.3506V51.8546H33.0644V47.1377Z" fill="#F15A29"/>
<path d="M33.0644 42.4229H28.3506V47.139H33.0644V42.4229Z" fill="#F9ED32"/>
<path d="M33.0644 37.7056H28.3506V42.4225H33.0644V37.7056Z" fill="#F9ED32"/>
<path d="M33.0644 32.9922H28.3506V37.706H33.0644V32.9922Z" fill="#F9ED32"/>
<path d="M33.0644 28.2759H28.3506V32.9928H33.0644V28.2759Z" fill="#F9ED32"/>
<path d="M33.0644 23.5615H28.3506V28.2753H33.0644V23.5615Z" fill="#F9ED32"/>
<path d="M33.0644 18.8633H28.3506V23.5622H33.0644V18.8633Z" fill="#F15A29"/>
<path d="M33.0644 14.147H28.3506V18.8631H33.0644V14.147Z" fill="#BE1E2D"/>
<path d="M33.0644 9.43262H28.3506V14.1464H33.0644V9.43262Z" fill="#231F20"/>
<path d="M37.8015 51.8555H33.0649V56.5693H37.8015V51.8555Z" fill="#231F20"/>
<path d="M37.8015 47.1377H33.0649V51.8546H37.8015V47.1377Z" fill="#BE1E2D"/>
<path d="M37.8015 42.4229H33.0649V47.139H37.8015V42.4229Z" fill="#F15A29"/>
<path d="M37.8015 37.7056H33.0649V42.4225H37.8015V37.7056Z" fill="#F9ED32"/>
<path d="M37.8015 32.9922H33.0649V37.706H37.8015V32.9922Z" fill="#F9ED32"/>
<path d="M37.8015 28.2759H33.0649V32.9928H37.8015V28.2759Z" fill="#F9ED32"/>
<path d="M37.8015 23.5615H33.0649V28.2753H37.8015V23.5615Z" fill="#F15A29"/>
<path d="M37.8015 18.8633H33.0649V23.5622H37.8015V18.8633Z" fill="#BE1E2D"/>
<path d="M37.8015 14.147H33.0649V18.8631H37.8015V14.147Z" fill="#231F20"/>
<path d="M42.5151 51.8555H37.8013V56.5693H42.5151V51.8555Z" fill="#231F20"/>
<path d="M42.5151 47.1377H37.8013V51.8546H42.5151V47.1377Z" fill="#BE1E2D"/>
<path d="M42.5151 42.4229H37.8013V47.139H42.5151V42.4229Z" fill="#F15A29"/>
<path d="M42.5151 37.7056H37.8013V42.4225H42.5151V37.7056Z" fill="#F9ED32"/>
<path d="M42.5151 32.9922H37.8013V37.706H42.5151V32.9922Z" fill="#F9ED32"/>
<path d="M42.5151 28.2759H37.8013V32.9928H42.5151V28.2759Z" fill="#F9ED32"/>
<path d="M42.5151 23.5615H37.8013V28.2753H42.5151V23.5615Z" fill="#F15A29"/>
<path d="M42.5151 18.8633H37.8013V23.5622H42.5151V18.8633Z" fill="#BE1E2D"/>
<path d="M42.5151 14.147H37.8013V18.8631H42.5151V14.147Z" fill="#231F20"/>
<path d="M47.253 47.1377H42.5156V51.8546H47.253V47.1377Z" fill="#231F20"/>
<path d="M47.253 42.4229H42.5156V47.139H47.253V42.4229Z" fill="#BE1E2D"/>
<path d="M47.253 37.7056H42.5156V42.4225H47.253V37.7056Z" fill="#F15A29"/>
<path d="M47.253 32.9922H42.5156V37.706H47.253V32.9922Z" fill="#F9ED32"/>
<path d="M47.253 28.2759H42.5156V32.9928H47.253V28.2759Z" fill="#F15A29"/>
<path d="M47.253 23.5615H42.5156V28.2753H47.253V23.5615Z" fill="#BE1E2D"/>
<path d="M47.253 18.8633H42.5156V23.5622H47.253V18.8633Z" fill="#231F20"/>
<path d="M51.9658 42.4229H47.252V47.139H51.9658V42.4229Z" fill="#231F20"/>
<path d="M51.9658 37.7056H47.252V42.4225H51.9658V37.7056Z" fill="#BE1E2D"/>
<path d="M51.9658 32.9922H47.252V37.706H51.9658V32.9922Z" fill="#F9ED32"/>
<path d="M51.9658 28.2759H47.252V32.9928H51.9658V28.2759Z" fill="#BE1E2D"/>
<path d="M51.9658 23.5615H47.252V28.2753H51.9658V23.5615Z" fill="#231F20"/>
<path d="M56.7029 37.7056H51.9663V42.4225H56.7029V37.7056Z" fill="#231F20"/>
<path d="M56.7029 32.9922H51.9663V37.706H56.7029V32.9922Z" fill="#F9ED32"/>
<path d="M56.7029 28.2759H51.9663V32.9928H56.7029V28.2759Z" fill="#231F20"/>
<path d="M61.4164 37.7056H56.7026V42.4225H61.4164V37.7056Z" fill="#231F20"/>
<path d="M61.4164 32.9922H56.7026V37.706H61.4164V32.9922Z" fill="#F9ED32"/>
<path d="M61.4164 28.2759H56.7026V32.9928H61.4164V28.2759Z" fill="#231F20"/>
<path d="M66.133 32.9922H61.416V37.706H66.133V32.9922Z" fill="#231F20"/>
<path d="M70.8657 28.2759H66.1323V32.9928H70.8657V28.2759Z" fill="#231F20"/>
<path d="M70.8657 23.5615H66.1323V28.2753H70.8657V23.5615Z" fill="#231F20"/>
<path d="M70.8657 18.8633H66.1323V23.5622H70.8657V18.8633Z" fill="#231F20"/>
<path d="M70.8657 14.147H66.1323V18.8631H70.8657V14.147Z" fill="#231F20"/>
<path d="M75.5832 37.7056H70.8662V42.4225H75.5832V37.7056Z" fill="#231F20"/>
<path d="M75.5832 28.2759H70.8662V32.9928H75.5832V28.2759Z" fill="#231F20"/>
<path d="M75.5832 23.5615H70.8662V28.2753H75.5832V23.5615Z" fill="#009444"/>
<path d="M75.5832 18.8633H70.8662V23.5622H75.5832V18.8633Z" fill="#009444"/>
<path d="M75.5832 14.147H70.8662V18.8631H75.5832V14.147Z" fill="#39B54A"/>
<path d="M75.5832 9.43262H70.8662V14.1464H75.5832V9.43262Z" fill="#231F20"/>
<path d="M80.3172 37.7056H75.583V42.4225H80.3172V37.7056Z" fill="#231F20"/>
<path d="M80.3172 28.2759H75.583V32.9928H80.3172V28.2759Z" fill="#231F20"/>
<path d="M80.3172 23.5615H75.583V28.2753H80.3172V23.5615Z" fill="#009444"/>
<path d="M80.3172 18.8633H75.583V23.5622H80.3172V18.8633Z" fill="#009444"/>
<path d="M80.3172 14.147H75.583V18.8631H80.3172V14.147Z" fill="#39B54A"/>
<path d="M80.3172 9.43262H75.583V14.1464H80.3172V9.43262Z" fill="#39B54A"/>
<path d="M80.3172 4.71729H75.583V9.43344H80.3172V4.71729Z" fill="#231F20"/>
<path d="M85.0338 37.7056H80.3169V42.4225H85.0338V37.7056Z" fill="#231F20"/>
<path d="M85.0338 28.2759H80.3169V32.9928H85.0338V28.2759Z" fill="#231F20"/>
<path d="M85.0338 23.5615H80.3169V28.2753H85.0338V23.5615Z" fill="#009444"/>
<path d="M85.0338 18.8633H80.3169V23.5622H85.0338V18.8633Z" fill="#009444"/>
<path d="M85.0338 14.147H80.3169V18.8631H85.0338V14.147Z" fill="#39B54A"/>
<path d="M85.0338 9.43262H80.3169V14.1464H85.0338V9.43262Z" fill="#39B54A"/>
<path d="M85.0338 4.71729H80.3169V9.43344H85.0338V4.71729Z" fill="#231F20"/>
<path d="M89.7671 66.002H85.0337V70.7158H89.7671V66.002Z" fill="#231F20"/>
<path d="M89.7671 61.2852H85.0337V66.0021H89.7671V61.2852Z" fill="#231F20"/>
<path d="M89.7671 37.7056H85.0337V42.4225H89.7671V37.7056Z" fill="#231F20"/>
<path d="M89.7671 28.2759H85.0337V32.9928H89.7671V28.2759Z" fill="#231F20"/>
<path d="M89.7671 23.5615H85.0337V28.2753H89.7671V23.5615Z" fill="#009444"/>
<path d="M89.7671 18.8633H85.0337V23.5622H89.7671V18.8633Z" fill="#009444"/>
<path d="M89.7671 14.147H85.0337V18.8631H89.7671V14.147Z" fill="#39B54A"/>
<path d="M89.7671 9.43262H85.0337V14.1464H89.7671V9.43262Z" fill="#39B54A"/>
<path d="M89.7671 4.71729H85.0337V9.43344H89.7671V4.71729Z" fill="#231F20"/>
<path d="M94.4845 61.2852H89.7676V66.0021H94.4845V61.2852Z" fill="#231F20"/>
<path d="M94.4845 37.7056H89.7676V42.4225H94.4845V37.7056Z" fill="#231F20"/>
<path d="M94.4845 32.9922H89.7676V37.706H94.4845V32.9922Z" fill="#231F20"/>
<path d="M94.4845 28.2759H89.7676V32.9928H94.4845V28.2759Z" fill="#231F20"/>
<path d="M94.4845 23.5615H89.7676V28.2753H94.4845V23.5615Z" fill="#009444"/>
<path d="M94.4845 18.8633H89.7676V23.5622H94.4845V18.8633Z" fill="#009444"/>
<path d="M94.4845 14.147H89.7676V18.8631H94.4845V14.147Z" fill="#009444"/>
<path d="M94.4845 9.43262H89.7676V14.1464H94.4845V9.43262Z" fill="#39B54A"/>
<path d="M94.4845 4.71729H89.7676V9.43344H94.4845V4.71729Z" fill="#39B54A"/>
<path d="M94.4845 0H89.7676V4.71694H94.4845V0Z" fill="#231F20"/>
<path d="M99.2186 80.1484H94.4844V84.8654H99.2186V80.1484Z" fill="#231F20"/>
<path d="M99.2186 75.4312H94.4844V80.1481H99.2186V75.4312Z" fill="#231F20"/>
<path d="M99.2186 70.7153H94.4844V75.4315H99.2186V70.7153Z" fill="#231F20"/>
<path d="M99.2186 66.002H94.4844V70.7158H99.2186V66.002Z" fill="#231F20"/>
<path d="M99.2186 61.2852H94.4844V66.0021H99.2186V61.2852Z" fill="#231F20"/>
<path d="M99.2186 56.5688H94.4844V61.2858H99.2186V56.5688Z" fill="#231F20"/>
<path d="M99.2186 51.8555H94.4844V56.5693H99.2186V51.8555Z" fill="#231F20"/>
<path d="M99.2186 47.1377H94.4844V51.8546H99.2186V47.1377Z" fill="#231F20"/>
<path d="M99.2186 42.4229H94.4844V47.139H99.2186V42.4229Z" fill="#231F20"/>
<path d="M99.2186 37.7056H94.4844V42.4225H99.2186V37.7056Z" fill="#231F20"/>
<path d="M99.2186 32.9922H94.4844V37.706H99.2186V32.9922Z" fill="#009444"/>
<path d="M99.2186 28.2759H94.4844V32.9928H99.2186V28.2759Z" fill="#009444"/>
<path d="M99.2186 23.5615H94.4844V28.2753H99.2186V23.5615Z" fill="#009444"/>
<path d="M99.2186 18.8633H94.4844V23.5622H99.2186V18.8633Z" fill="#009444"/>
<path d="M99.2186 14.147H94.4844V18.8631H99.2186V14.147Z" fill="#231F20"/>
<path d="M99.2186 9.43262H94.4844V14.1464H99.2186V9.43262Z" fill="#39B54A"/>
<path d="M99.2186 4.71729H94.4844V9.43344H99.2186V4.71729Z" fill="#39B54A"/>
<path d="M99.2186 0H94.4844V4.71694H99.2186V0Z" fill="#231F20"/>
<path d="M103.934 89.5781H99.2183V94.2739H103.934V89.5781Z" fill="#231F20"/>
<path d="M103.934 84.8652H99.2183V89.579H103.934V84.8652Z" fill="#231F20"/>
<path d="M103.934 80.1484H99.2183V84.8654H103.934V80.1484Z" fill="#D7DF23"/>
<path d="M103.934 75.4312H99.2183V80.1481H103.934V75.4312Z" fill="#D7DF23"/>
<path d="M103.934 70.7153H99.2183V75.4315H103.934V70.7153Z" fill="#D7DF23"/>
<path d="M103.934 66.002H99.2183V70.7158H103.934V66.002Z" fill="#D7DF23"/>
<path d="M103.934 61.2852H99.2183V66.0021H103.934V61.2852Z" fill="#231F20"/>
<path d="M103.934 56.5688H99.2183V61.2858H103.934V56.5688Z" fill="#D7DF23"/>
<path d="M103.934 51.8555H99.2183V56.5693H103.934V51.8555Z" fill="#D7DF23"/>
<path d="M103.934 47.1377H99.2183V51.8546H103.934V47.1377Z" fill="#D7DF23"/>
<path d="M103.934 42.4229H99.2183V47.139H103.934V42.4229Z" fill="#009444"/>
<path d="M103.934 37.7056H99.2183V42.4225H103.934V37.7056Z" fill="#009444"/>
<path d="M103.934 32.9922H99.2183V37.706H103.934V32.9922Z" fill="#009444"/>
<path d="M103.934 28.2759H99.2183V32.9928H103.934V28.2759Z" fill="#009444"/>
<path d="M103.934 23.5615H99.2183V28.2753H103.934V23.5615Z" fill="#009444"/>
<path d="M103.934 18.8633H99.2183V23.5622H103.934V18.8633Z" fill="#231F20"/>
<path d="M103.934 14.147H99.2183V18.8631H103.934V14.147Z" fill="white"/>
<path d="M103.934 9.43262H99.2183V14.1464H103.934V9.43262Z" fill="#231F20"/>
<path d="M103.934 4.71729H99.2183V9.43344H103.934V4.71729Z" fill="#39B54A"/>
<path d="M103.934 0H99.2183V4.71694H103.934V0Z" fill="#231F20"/>
<path d="M108.668 94.2744H103.934V98.9914H108.668V94.2744Z" fill="#231F20"/>
<path d="M108.668 89.5781H103.934V94.2739H108.668V89.5781Z" fill="#D7DF23"/>
<path d="M108.668 84.8652H103.934V89.579H108.668V84.8652Z" fill="#D7DF23"/>
<path d="M108.668 80.1484H103.934V84.8654H108.668V80.1484Z" fill="#D7DF23"/>
<path d="M108.668 75.4312H103.934V80.1481H108.668V75.4312Z" fill="#D7DF23"/>
<path d="M108.668 70.7153H103.934V75.4315H108.668V70.7153Z" fill="#D7DF23"/>
<path d="M108.668 66.002H103.934V70.7158H108.668V66.002Z" fill="#D7DF23"/>
<path d="M108.668 61.2852H103.934V66.0021H108.668V61.2852Z" fill="#231F20"/>
<path d="M108.668 56.5688H103.934V61.2858H108.668V56.5688Z" fill="#009444"/>
<path d="M108.668 51.8555H103.934V56.5693H108.668V51.8555Z" fill="#009444"/>
<path d="M108.668 47.1377H103.934V51.8546H108.668V47.1377Z" fill="#009444"/>
<path d="M108.668 42.4229H103.934V47.139H108.668V42.4229Z" fill="#009444"/>
<path d="M108.668 37.7056H103.934V42.4225H108.668V37.7056Z" fill="#009444"/>
<path d="M108.668 32.9922H103.934V37.706H108.668V32.9922Z" fill="#009444"/>
<path d="M108.668 28.2759H103.934V32.9928H108.668V28.2759Z" fill="#009444"/>
<path d="M108.668 23.5615H103.934V28.2753H108.668V23.5615Z" fill="#009444"/>
<path d="M108.668 18.8633H103.934V23.5622H108.668V18.8633Z" fill="#009444"/>
<path d="M108.668 14.147H103.934V18.8631H108.668V14.147Z" fill="#231F20"/>
<path d="M108.668 9.43262H103.934V14.1464H108.668V9.43262Z" fill="#39B54A"/>
<path d="M108.668 4.71729H103.934V9.43344H108.668V4.71729Z" fill="#231F20"/>
<path d="M113.386 98.9907H108.669V103.708H113.386V98.9907Z" fill="#231F20"/>
<path d="M113.386 94.2744H108.669V98.9914H113.386V94.2744Z" fill="#D7DF23"/>
<path d="M113.386 89.5781H108.669V94.2739H113.386V89.5781Z" fill="#D7DF23"/>
<path d="M113.386 84.8652H108.669V89.579H113.386V84.8652Z" fill="#D7DF23"/>
<path d="M113.386 80.1484H108.669V84.8654H113.386V80.1484Z" fill="#D7DF23"/>
<path d="M113.386 75.4312H108.669V80.1481H113.386V75.4312Z" fill="#D7DF23"/>
<path d="M113.386 70.7153H108.669V75.4315H113.386V70.7153Z" fill="#009444"/>
<path d="M113.386 66.002H108.669V70.7158H113.386V66.002Z" fill="#009444"/>
<path d="M113.386 61.2852H108.669V66.0021H113.386V61.2852Z" fill="#009444"/>
<path d="M113.386 56.5688H108.669V61.2858H113.386V56.5688Z" fill="#009444"/>
<path d="M113.386 51.8555H108.669V56.5693H113.386V51.8555Z" fill="#009444"/>
<path d="M113.386 47.1377H108.669V51.8546H113.386V47.1377Z" fill="#009444"/>
<path d="M113.386 42.4229H108.669V47.139H113.386V42.4229Z" fill="#009444"/>
<path d="M113.386 37.7056H108.669V42.4225H113.386V37.7056Z" fill="#009444"/>
<path d="M113.386 32.9922H108.669V37.706H113.386V32.9922Z" fill="#009444"/>
<path d="M113.386 28.2759H108.669V32.9928H113.386V28.2759Z" fill="#009444"/>
<path d="M113.386 23.5615H108.669V28.2753H113.386V23.5615Z" fill="#009444"/>
<path d="M113.386 18.8633H108.669V23.5622H113.386V18.8633Z" fill="#009444"/>
<path d="M113.386 14.147H108.669V18.8631H113.386V14.147Z" fill="#39B54A"/>
<path d="M113.386 9.43262H108.669V14.1464H113.386V9.43262Z" fill="#39B54A"/>
<path d="M113.386 4.71729H108.669V9.43344H113.386V4.71729Z" fill="#231F20"/>
<path d="M118.1 103.708H113.386V108.424H118.1V103.708Z" fill="#231F20"/>
<path d="M118.1 98.9907H113.386V103.708H118.1V98.9907Z" fill="#D7DF23"/>
<path d="M118.1 94.2744H113.386V98.9914H118.1V94.2744Z" fill="#D7DF23"/>
<path d="M118.1 89.5781H113.386V94.2739H118.1V89.5781Z" fill="#D7DF23"/>
<path d="M118.1 84.8652H113.386V89.579H118.1V84.8652Z" fill="#D7DF23"/>
<path d="M118.1 80.1484H113.386V84.8654H118.1V80.1484Z" fill="#009444"/>
<path d="M118.1 75.4312H113.386V80.1481H118.1V75.4312Z" fill="#009444"/>
<path d="M118.1 70.7153H113.386V75.4315H118.1V70.7153Z" fill="#009444"/>
<path d="M118.1 66.002H113.386V70.7158H118.1V66.002Z" fill="#009444"/>
<path d="M118.1 61.2852H113.386V66.0021H118.1V61.2852Z" fill="#009444"/>
<path d="M118.1 56.5688H113.386V61.2858H118.1V56.5688Z" fill="#009444"/>
<path d="M118.1 51.8555H113.386V56.5693H118.1V51.8555Z" fill="#39B54A"/>
<path d="M118.1 47.1377H113.386V51.8546H118.1V47.1377Z" fill="#39B54A"/>
<path d="M118.1 42.4229H113.386V47.139H118.1V42.4229Z" fill="#39B54A"/>
<path d="M118.1 37.7056H113.386V42.4225H118.1V37.7056Z" fill="#39B54A"/>
<path d="M118.1 32.9922H113.386V37.706H118.1V32.9922Z" fill="#39B54A"/>
<path d="M118.1 28.2759H113.386V32.9928H118.1V28.2759Z" fill="#39B54A"/>
<path d="M118.1 23.5615H113.386V28.2753H118.1V23.5615Z" fill="#39B54A"/>
<path d="M118.1 18.8633H113.386V23.5622H118.1V18.8633Z" fill="#39B54A"/>
<path d="M118.1 14.147H113.386V18.8631H118.1V14.147Z" fill="#39B54A"/>
<path d="M118.1 9.43262H113.386V14.1464H118.1V9.43262Z" fill="#231F20"/>
<path d="M122.835 108.424H118.099V113.138H122.835V108.424Z" fill="#231F20"/>
<path d="M122.835 103.708H118.099V108.424H122.835V103.708Z" fill="#D7DF23"/>
<path d="M122.835 98.9907H118.099V103.708H122.835V98.9907Z" fill="#D7DF23"/>
<path d="M122.835 94.2744H118.099V98.9914H122.835V94.2744Z" fill="#D7DF23"/>
<path d="M122.835 89.5781H118.099V94.2739H122.835V89.5781Z" fill="#D7DF23"/>
<path d="M122.835 84.8652H118.099V89.579H122.835V84.8652Z" fill="#009444"/>
<path d="M122.835 80.1484H118.099V84.8654H122.835V80.1484Z" fill="#009444"/>
<path d="M122.835 75.4312H118.099V80.1481H122.835V75.4312Z" fill="#009444"/>
<path d="M122.835 70.7153H118.099V75.4315H122.835V70.7153Z" fill="#009444"/>
<path d="M122.835 66.002H118.099V70.7158H122.835V66.002Z" fill="#009444"/>
<path d="M122.835 61.2852H118.099V66.0021H122.835V61.2852Z" fill="#39B54A"/>
<path d="M122.835 56.5688H118.099V61.2858H122.835V56.5688Z" fill="#39B54A"/>
<path d="M122.835 51.8555H118.099V56.5693H122.835V51.8555Z" fill="#39B54A"/>
<path d="M122.835 47.1377H118.099V51.8546H122.835V47.1377Z" fill="#39B54A"/>
<path d="M122.835 42.4229H118.099V47.139H122.835V42.4229Z" fill="#231F20"/>
<path d="M122.835 37.7056H118.099V42.4225H122.835V37.7056Z" fill="#231F20"/>
<path d="M122.835 32.9922H118.099V37.706H122.835V32.9922Z" fill="#231F20"/>
<path d="M122.835 28.2759H118.099V32.9928H122.835V28.2759Z" fill="#231F20"/>
<path d="M122.835 23.5615H118.099V28.2753H122.835V23.5615Z" fill="#231F20"/>
<path d="M122.835 18.8633H118.099V23.5622H122.835V18.8633Z" fill="#231F20"/>
<path d="M122.835 14.147H118.099V18.8631H122.835V14.147Z" fill="#231F20"/>
<path d="M127.549 127.284H122.835V132H127.549V127.284Z" fill="#231F20"/>
<path d="M127.549 113.137H122.835V117.854H127.549V113.137Z" fill="#231F20"/>
<path d="M127.549 108.424H122.835V113.138H127.549V108.424Z" fill="#D7DF23"/>
<path d="M127.549 103.708H122.835V108.424H127.549V103.708Z" fill="#D7DF23"/>
<path d="M127.549 98.9907H122.835V103.708H127.549V98.9907Z" fill="#D7DF23"/>
<path d="M127.549 94.2744H122.835V98.9914H127.549V94.2744Z" fill="#009444"/>
<path d="M127.549 89.5781H122.835V94.2739H127.549V89.5781Z" fill="#009444"/>
<path d="M127.549 84.8652H122.835V89.579H127.549V84.8652Z" fill="#009444"/>
<path d="M127.549 80.1484H122.835V84.8654H127.549V80.1484Z" fill="#009444"/>
<path d="M127.549 75.4312H122.835V80.1481H127.549V75.4312Z" fill="#009444"/>
<path d="M127.549 70.7153H122.835V75.4315H127.549V70.7153Z" fill="#009444"/>
<path d="M127.549 66.002H122.835V70.7158H127.549V66.002Z" fill="#39B54A"/>
<path d="M127.549 61.2852H122.835V66.0021H127.549V61.2852Z" fill="#39B54A"/>
<path d="M127.549 56.5688H122.835V61.2858H127.549V56.5688Z" fill="#39B54A"/>
<path d="M127.549 51.8555H122.835V56.5693H127.549V51.8555Z" fill="#39B54A"/>
<path d="M127.549 47.1377H122.835V51.8546H127.549V47.1377Z" fill="#231F20"/>
<path d="M132.286 127.284H127.549V132H132.286V127.284Z" fill="#231F20"/>
<path d="M132.286 122.571H127.549V127.285H132.286V122.571Z" fill="#231F20"/>
<path d="M132.286 117.854H127.549V122.571H132.286V117.854Z" fill="#231F20"/>
<path d="M132.286 113.137H127.549V117.854H132.286V113.137Z" fill="#009444"/>
<path d="M132.286 108.424H127.549V113.138H132.286V108.424Z" fill="#009444"/>
<path d="M132.286 103.708H127.549V108.424H132.286V103.708Z" fill="#009444"/>
<path d="M132.286 98.9907H127.549V103.708H132.286V98.9907Z" fill="#009444"/>
<path d="M132.286 94.2744H127.549V98.9914H132.286V94.2744Z" fill="#009444"/>
<path d="M132.286 89.5781H127.549V94.2739H132.286V89.5781Z" fill="#009444"/>
<path d="M132.286 84.8652H127.549V89.579H132.286V84.8652Z" fill="#009444"/>
<path d="M132.286 80.1484H127.549V84.8654H132.286V80.1484Z" fill="#009444"/>
<path d="M132.286 75.4312H127.549V80.1481H132.286V75.4312Z" fill="#009444"/>
<path d="M132.286 70.7153H127.549V75.4315H132.286V70.7153Z" fill="#39B54A"/>
<path d="M132.286 66.002H127.549V70.7158H132.286V66.002Z" fill="#39B54A"/>
<path d="M132.286 61.2852H127.549V66.0021H132.286V61.2852Z" fill="#39B54A"/>
<path d="M132.286 56.5688H127.549V61.2858H132.286V56.5688Z" fill="#39B54A"/>
<path d="M132.286 51.8555H127.549V56.5693H132.286V51.8555Z" fill="#231F20"/>
<path d="M137 117.854H132.286V122.571H137V117.854Z" fill="#231F20"/>
<path d="M137 113.137H132.286V117.854H137V113.137Z" fill="#009444"/>
<path d="M137 108.424H132.286V113.138H137V108.424Z" fill="#009444"/>
<path d="M137 103.708H132.286V108.424H137V103.708Z" fill="#009444"/>
<path d="M137 98.9907H132.286V103.708H137V98.9907Z" fill="#009444"/>
<path d="M137 94.2744H132.286V98.9914H137V94.2744Z" fill="#009444"/>
<path d="M137 89.5781H132.286V94.2739H137V89.5781Z" fill="#009444"/>
<path d="M137 84.8652H132.286V89.579H137V84.8652Z" fill="#009444"/>
<path d="M137 80.1484H132.286V84.8654H137V80.1484Z" fill="#009444"/>
<path d="M137 75.4312H132.286V80.1481H137V75.4312Z" fill="#009444"/>
<path d="M137 70.7153H132.286V75.4315H137V70.7153Z" fill="#39B54A"/>
<path d="M137 66.002H132.286V70.7158H137V66.002Z" fill="#39B54A"/>
<path d="M137 61.2852H132.286V66.0021H137V61.2852Z" fill="#39B54A"/>
<path d="M137 56.5688H132.286V61.2858H137V56.5688Z" fill="#231F20"/>
<path d="M141.733 113.137H136.999V117.854H141.733V113.137Z" fill="#231F20"/>
<path d="M141.733 108.424H136.999V113.138H141.733V108.424Z" fill="#009444"/>
<path d="M141.733 103.708H136.999V108.424H141.733V103.708Z" fill="#009444"/>
<path d="M141.733 98.9907H136.999V103.708H141.733V98.9907Z" fill="#009444"/>
<path d="M141.733 94.2744H136.999V98.9914H141.733V94.2744Z" fill="#009444"/>
<path d="M141.733 89.5781H136.999V94.2739H141.733V89.5781Z" fill="#009444"/>
<path d="M141.733 84.8652H136.999V89.579H141.733V84.8652Z" fill="#009444"/>
<path d="M141.733 80.1484H136.999V84.8654H141.733V80.1484Z" fill="#009444"/>
<path d="M141.733 75.4312H136.999V80.1481H141.733V75.4312Z" fill="#39B54A"/>
<path d="M141.733 70.7153H136.999V75.4315H141.733V70.7153Z" fill="#39B54A"/>
<path d="M141.733 66.002H136.999V70.7158H141.733V66.002Z" fill="#39B54A"/>
<path d="M141.733 61.2852H136.999V66.0021H141.733V61.2852Z" fill="#231F20"/>
<path d="M146.451 108.424H141.734V113.138H146.451V108.424Z" fill="#231F20"/>
<path d="M146.451 103.708H141.734V108.424H146.451V103.708Z" fill="#009444"/>
<path d="M146.451 98.9907H141.734V103.708H146.451V98.9907Z" fill="#009444"/>
<path d="M146.451 94.2744H141.734V98.9914H146.451V94.2744Z" fill="#009444"/>
<path d="M146.451 89.5781H141.734V94.2739H146.451V89.5781Z" fill="#009444"/>
<path d="M146.451 84.8652H141.734V89.579H146.451V84.8652Z" fill="#009444"/>
<path d="M146.451 80.1484H141.734V84.8654H146.451V80.1484Z" fill="#39B54A"/>
<path d="M146.451 75.4312H141.734V80.1481H146.451V75.4312Z" fill="#39B54A"/>
<path d="M146.451 70.7153H141.734V75.4315H146.451V70.7153Z" fill="#39B54A"/>
<path d="M146.451 66.002H141.734V70.7158H146.451V66.002Z" fill="#231F20"/>
<path d="M151.183 127.284H146.45V132H151.183V127.284Z" fill="#231F20"/>
<path d="M151.183 117.854H146.45V122.571H151.183V117.854Z" fill="#231F20"/>
<path d="M151.183 113.137H146.45V117.854H151.183V113.137Z" fill="#231F20"/>
<path d="M151.183 108.424H146.45V113.138H151.183V108.424Z" fill="#009444"/>
<path d="M151.183 103.708H146.45V108.424H151.183V103.708Z" fill="#009444"/>
<path d="M151.183 98.9907H146.45V103.708H151.183V98.9907Z" fill="#009444"/>
<path d="M151.183 94.2744H146.45V98.9914H151.183V94.2744Z" fill="#009444"/>
<path d="M151.183 89.5781H146.45V94.2739H151.183V89.5781Z" fill="#009444"/>
<path d="M151.183 84.8652H146.45V89.579H151.183V84.8652Z" fill="#009444"/>
<path d="M151.183 80.1484H146.45V84.8654H151.183V80.1484Z" fill="#39B54A"/>
<path d="M151.183 75.4312H146.45V80.1481H151.183V75.4312Z" fill="#39B54A"/>
<path d="M151.183 70.7153H146.45V75.4315H151.183V70.7153Z" fill="#39B54A"/>
<path d="M155.901 127.284H151.184V132H155.901V127.284Z" fill="#231F20"/>
<path d="M155.901 122.571H151.184V127.285H155.901V122.571Z" fill="#231F20"/>
<path d="M155.901 117.854H151.184V122.571H155.901V117.854Z" fill="#231F20"/>
<path d="M155.901 113.137H151.184V117.854H155.901V113.137Z" fill="#009444"/>
<path d="M155.901 108.424H151.184V113.138H155.901V108.424Z" fill="#009444"/>
<path d="M155.901 103.708H151.184V108.424H155.901V103.708Z" fill="#009444"/>
<path d="M155.901 98.9907H151.184V103.708H155.901V98.9907Z" fill="#009444"/>
<path d="M155.901 94.2744H151.184V98.9914H155.901V94.2744Z" fill="#009444"/>
<path d="M155.901 89.5781H151.184V94.2739H155.901V89.5781Z" fill="#009444"/>
<path d="M155.901 84.8652H151.184V89.579H155.901V84.8652Z" fill="#39B54A"/>
<path d="M155.901 80.1484H151.184V84.8654H155.901V80.1484Z" fill="#39B54A"/>
<path d="M155.901 75.4312H151.184V80.1481H155.901V75.4312Z" fill="#39B54A"/>
<path d="M155.901 70.7153H151.184V75.4315H155.901V70.7153Z" fill="#231F20"/>
<path d="M160.617 113.137H155.9V117.854H160.617V113.137Z" fill="#231F20"/>
<path d="M160.617 108.424H155.9V113.138H160.617V108.424Z" fill="#009444"/>
<path d="M160.617 103.708H155.9V108.424H160.617V103.708Z" fill="#009444"/>
<path d="M160.617 98.9907H155.9V103.708H160.617V98.9907Z" fill="#009444"/>
<path d="M160.617 94.2744H155.9V98.9914H160.617V94.2744Z" fill="#009444"/>
<path d="M160.617 89.5781H155.9V94.2739H160.617V89.5781Z" fill="#009444"/>
<path d="M160.617 84.8652H155.9V89.579H160.617V84.8652Z" fill="#39B54A"/>
<path d="M160.617 80.1484H155.9V84.8654H160.617V80.1484Z" fill="#39B54A"/>
<path d="M160.617 75.4312H155.9V80.1481H160.617V75.4312Z" fill="#231F20"/>
<path d="M165.351 108.424H160.617V113.138H165.351V108.424Z" fill="#231F20"/>
<path d="M165.351 103.708H160.617V108.424H165.351V103.708Z" fill="#009444"/>
<path d="M165.351 98.9907H160.617V103.708H165.351V98.9907Z" fill="#009444"/>
<path d="M165.351 94.2744H160.617V98.9914H165.351V94.2744Z" fill="#009444"/>
<path d="M165.351 89.5781H160.617V94.2739H165.351V89.5781Z" fill="#009444"/>
<path d="M165.351 84.8652H160.617V89.579H165.351V84.8652Z" fill="#39B54A"/>
<path d="M165.351 80.1484H160.617V84.8654H165.351V80.1484Z" fill="#39B54A"/>
<path d="M165.351 75.4312H160.617V80.1481H165.351V75.4312Z" fill="#231F20"/>
<path d="M170.067 108.424H165.35V113.138H170.067V108.424Z" fill="#231F20"/>
<path d="M170.067 103.708H165.35V108.424H170.067V103.708Z" fill="#009444"/>
<path d="M170.067 98.9907H165.35V103.708H170.067V98.9907Z" fill="#009444"/>
<path d="M170.067 94.2744H165.35V98.9914H170.067V94.2744Z" fill="#009444"/>
<path d="M170.067 89.5781H165.35V94.2739H170.067V89.5781Z" fill="#009444"/>
<path d="M170.067 84.8652H165.35V89.579H170.067V84.8652Z" fill="#39B54A"/>
<path d="M170.067 80.1484H165.35V84.8654H170.067V80.1484Z" fill="#39B54A"/>
<path d="M170.067 75.4312H165.35V80.1481H170.067V75.4312Z" fill="#231F20"/>
<path d="M174.801 103.708H170.067V108.424H174.801V103.708Z" fill="#231F20"/>
<path d="M174.801 98.9907H170.067V103.708H174.801V98.9907Z" fill="#009444"/>
<path d="M174.801 94.2744H170.067V98.9914H174.801V94.2744Z" fill="#009444"/>
<path d="M174.801 89.5781H170.067V94.2739H174.801V89.5781Z" fill="#009444"/>
<path d="M174.801 84.8652H170.067V89.579H174.801V84.8652Z" fill="#009444"/>
<path d="M174.801 80.1484H170.067V84.8654H174.801V80.1484Z" fill="#39B54A"/>
<path d="M174.801 75.4312H170.067V80.1481H174.801V75.4312Z" fill="#39B54A"/>
<path d="M174.801 70.7153H170.067V75.4315H174.801V70.7153Z" fill="#231F20"/>
<path d="M179.516 98.9907H174.802V103.708H179.516V98.9907Z" fill="#231F20"/>
<path d="M179.516 94.2744H174.802V98.9914H179.516V94.2744Z" fill="#009444"/>
<path d="M179.516 89.5781H174.802V94.2739H179.516V89.5781Z" fill="#009444"/>
<path d="M179.516 84.8652H174.802V89.579H179.516V84.8652Z" fill="#009444"/>
<path d="M179.516 80.1484H174.802V84.8654H179.516V80.1484Z" fill="#39B54A"/>
<path d="M179.516 75.4312H174.802V80.1481H179.516V75.4312Z" fill="#39B54A"/>
<path d="M179.516 70.7153H174.802V75.4315H179.516V70.7153Z" fill="#231F20"/>
<path d="M184.252 94.2744H179.515V98.9914H184.252V94.2744Z" fill="#231F20"/>
<path d="M184.252 89.5781H179.515V94.2739H184.252V89.5781Z" fill="#231F20"/>
<path d="M184.252 84.8652H179.515V89.579H184.252V84.8652Z" fill="#009444"/>
<path d="M184.252 80.1484H179.515V84.8654H184.252V80.1484Z" fill="#009444"/>
<path d="M184.252 75.4312H179.515V80.1481H184.252V75.4312Z" fill="#009444"/>
<path d="M184.252 70.7153H179.515V75.4315H184.252V70.7153Z" fill="#39B54A"/>
<path d="M184.252 66.002H179.515V70.7158H184.252V66.002Z" fill="#231F20"/>
<path d="M188.965 84.8652H184.251V89.579H188.965V84.8652Z" fill="#231F20"/>
<path d="M188.965 80.1484H184.251V84.8654H188.965V80.1484Z" fill="#231F20"/>
<path d="M188.965 75.4312H184.251V80.1481H188.965V75.4312Z" fill="#009444"/>
<path d="M188.965 70.7153H184.251V75.4315H188.965V70.7153Z" fill="#009444"/>
<path d="M188.965 66.002H184.251V70.7158H188.965V66.002Z" fill="#39B54A"/>
<path d="M188.965 61.2852H184.251V66.0021H188.965V61.2852Z" fill="#231F20"/>
<path d="M193.702 75.4312H188.965V80.1481H193.702V75.4312Z" fill="#231F20"/>
<path d="M193.702 70.7153H188.965V75.4315H193.702V70.7153Z" fill="#231F20"/>
<path d="M193.702 66.002H188.965V70.7158H193.702V66.002Z" fill="#231F20"/>
<path d="M193.702 61.2852H188.965V66.0021H193.702V61.2852Z" fill="#231F20"/>
<path d="M193.702 56.5688H188.965V61.2858H193.702V56.5688Z" fill="#231F20"/>
<path d="M193.702 51.8555H188.965V56.5693H193.702V51.8555Z" fill="#231F20"/>
</svg>
